<svg height="100" viewBox="0 0 100 100" width="100" xmlns="http://www.w3.org/2000/svg"><g fill="#fff" fill-rule="evenodd"><path d="m50.0004412 0c-27.6133165 0-50.0004412 22.3848726-50.0004412 49.9995588 0 27.6138038 22.3871247 50.0004412 50.0004412 50.0004412s49.9995588-22.3866374 49.9995588-50.0004412c0-27.6146862-22.3871247-49.9995588-49.9995588-49.9995588z" fill-rule="evenodd" height="100%" width="100%"/><path d="m50.000441.5c-27.33782 0-49.500441 22.161661-49.500441 49.499559 0 27.337492 22.163098 49.500441 49.500441 49.500441 27.337172 0 49.499559-22.162778 49.499559-49.500441 0-27.337763-22.162486-49.499559-49.499559-49.499559z"/></g><path d="m24.805462 82.196396c-1.293437-.411238-2.217228-1.432374-2.459333-2.718488-.05812-.308725-.08711-10.49476-.08627-30.303497.0014-32.560412-.03118-30.437073.480328-31.309897.329161-.561671 1.158162-1.287122 1.738531-1.521371l.49941-.201574 15.215154-.02253 15.215153-.02253.02293 10.5122.02293 10.512201.275678.581961c.356805.753221.979182 1.375598 1.732403 1.732403l.581961.275678 10.51198.02293 10.511981.02293-.02231 20.006733-.02231 20.006732-.232749.496653c-.324523.692487-1.008025 1.387101-1.700237 1.72788l-.567077.279175-25.686411.0161c-20.580431.0129-25.755058-.0057-26.031749-.0937zm39.558707-14.207314c.492026-.300006.54382-.511804.543461-2.222328-.000259-1.371848-.01841-1.566385-.168852-1.813125-.35857-.588075.732701-.547751-14.153996-.523002l-13.465296.02238-.265212.254096c-.145866.139754-.3036.392283-.350519.561176-.110229.396793-.111711 2.636886-.002 3.019436.09334.325449.384242.678422.649572.78817.09497.03928 6.194519.07374 13.554556.07657 13.125075.0051 13.387191.0019 13.658283-.163379zm-.06315-9.438097c.117286-.05935.301826-.239348.41009-.400001.186492-.276735.196845-.37249.196845-1.820588 0-1.448099-.01035-1.543854-.196845-1.820589-.108264-.160653-.292804-.340653-.41009-.400001-.167825-.08492-3.070565-.108175-13.628109-.109176-13.307825-.0013-13.417113.000086-13.69693.173054-.45897.28366-.558494.667984-.558494 2.156712 0 1.475007.09954 1.866466.547604 2.153508.270596.173352.37013.174622 13.69763.174802 10.568041.000173 13.470435-.02278 13.638299-.107721zm.06315-9.469214c.491001-.29938.543784-.513412.543784-2.205031s-.05278-1.90565-.543784-2.205031c-.270995-.165236-.538485-.168535-13.688129-.168851-14.856566-.000346-13.691153-.04605-14.0526.550971-.134799.222656-.167927.482122-.192678 1.509128-.01644.682133-.0044 1.410398.02681 1.618366.06007.400574.381912.862672.686715.985978.09884.03999 6.20156.07502 13.561598.07785 13.125074.0051 13.38719.0019 13.658282-.16338zm-4.204627-22.801233v-8.725174l.41009.282319c.552728.380517 16.416151 16.238675 16.763503 16.757939l.274321.41009h-8.723957-8.723957z" stroke-width=".086335"/></svg>